<?xml version="1.0" encoding="UTF-8" standalone="no"?>
<!DOCTYPE svg PUBLIC "-//W3C//DTD SVG 1.1//EN"
 "http://www.w3.org/Graphics/SVG/1.1/DTD/svg11.dtd">
<!-- Generated by graphviz version 2.43.0 (0)
 -->
<!-- Title: G Pages: 1 -->
<svg width="1306pt" height="506pt"
 viewBox="0.00 0.00 1306.00 506.00" xmlns="http://www.w3.org/2000/svg" xmlns:xlink="http://www.w3.org/1999/xlink">
<g id="graph0" class="graph" transform="scale(1 1) rotate(0) translate(4 502)">
<title>G</title>
<polygon fill="white" stroke="transparent" points="-4,4 -4,-502 1302,-502 1302,4 -4,4"/>
<g id="clust1" class="cluster">
<title>cluster_tacitness</title>
</g>
<g id="clust2" class="cluster">
<title>cluster_rhs</title>
<polygon fill="none" stroke="black" stroke-dasharray="1,5" points="48.5,-438 48.5,-490 720,-490 720,-438 48.5,-438"/>
</g>
<!-- n1 -->
<g id="node1" class="node">
<title>n1</title>
<polygon fill="none" stroke="black" points="167,-266 0,-266 0,-228 167,-228 167,-266"/>
<text text-anchor="middle" x="83.5" y="-250.8" font-family="Times,serif" font-size="14.00">Has knowledge asset</text>
<text text-anchor="middle" x="83.5" y="-235.8" font-family="Times,serif" font-size="14.00">been explicated?</text>
</g>
<!-- n2 -->
<g id="node2" class="node">
<title>n2</title>
<polygon fill="none" stroke="black" points="396,-240 221,-240 221,-204 396,-204 396,-240"/>
<text text-anchor="middle" x="308.5" y="-218.3" font-family="Times,serif" font-size="14.00">Is it easy to replicate?</text>
</g>
<!-- n1&#45;&gt;n2 -->
<g id="edge2" class="edge">
<title>n1&#45;&gt;n2</title>
<path fill="none" stroke="black" d="M167.22,-237.73C181.42,-236.13 196.29,-234.47 210.82,-232.84"/>
<polygon fill="black" stroke="black" points="211.26,-236.31 220.81,-231.72 210.48,-229.35 211.26,-236.31"/>
<text text-anchor="middle" x="194" y="-238.8" font-family="Times,serif" font-size="14.00">no</text>
</g>
<!-- low1 -->
<g id="node6" class="node">
<title>low1</title>
<text text-anchor="middle" x="1065" y="-272.3" font-family="Times,serif" font-size="14.00">Low</text>
</g>
<!-- n1&#45;&gt;low1 -->
<g id="edge1" class="edge">
<title>n1&#45;&gt;low1</title>
<path fill="none" stroke="black" d="M167.12,-260.71C209.05,-266.53 260.85,-272 307.5,-272 307.5,-272 307.5,-272 899.5,-272 943.58,-272 994.28,-273.45 1027.61,-274.61"/>
<polygon fill="black" stroke="black" points="1027.68,-278.11 1037.79,-274.97 1027.92,-271.12 1027.68,-278.11"/>
<text text-anchor="middle" x="580.5" y="-275.8" font-family="Times,serif" font-size="14.00">yes</text>
</g>
<!-- n3 -->
<g id="node3" class="node">
<title>n3</title>
<polygon fill="none" stroke="black" points="550,-187 450,-187 450,-149 550,-149 550,-187"/>
<text text-anchor="middle" x="500" y="-171.8" font-family="Times,serif" font-size="14.00">Is it easy to</text>
<text text-anchor="middle" x="500" y="-156.8" font-family="Times,serif" font-size="14.00">articulate?</text>
</g>
<!-- n2&#45;&gt;n3 -->
<g id="edge4" class="edge">
<title>n2&#45;&gt;n3</title>
<path fill="none" stroke="black" d="M372.86,-203.94C394.51,-197.78 418.61,-190.91 439.9,-184.84"/>
<polygon fill="black" stroke="black" points="441.13,-188.13 449.79,-182.02 439.21,-181.4 441.13,-188.13"/>
<text text-anchor="middle" x="423" y="-195.8" font-family="Times,serif" font-size="14.00">no</text>
</g>
<!-- low2 -->
<g id="node7" class="node">
<title>low2</title>
<text text-anchor="middle" x="1065" y="-218.3" font-family="Times,serif" font-size="14.00">Low</text>
</g>
<!-- n2&#45;&gt;low2 -->
<g id="edge3" class="edge">
<title>n2&#45;&gt;low2</title>
<path fill="none" stroke="black" d="M396.29,-222C428.54,-222 465.44,-222 499,-222 499,-222 499,-222 899.5,-222 943.57,-222 994.27,-222 1027.61,-222"/>
<polygon fill="black" stroke="black" points="1027.79,-225.5 1037.79,-222 1027.79,-218.5 1027.79,-225.5"/>
<text text-anchor="middle" x="685" y="-225.8" font-family="Times,serif" font-size="14.00">yes</text>
</g>
<!-- n4 -->
<g id="node4" class="node">
<title>n4</title>
<polygon fill="none" stroke="black" points="759,-131 611,-131 611,-93 759,-93 759,-131"/>
<text text-anchor="middle" x="685" y="-115.8" font-family="Times,serif" font-size="14.00">Is it endemic to</text>
<text text-anchor="middle" x="685" y="-100.8" font-family="Times,serif" font-size="14.00">the firm&#39;s culture?</text>
</g>
<!-- n3&#45;&gt;n4 -->
<g id="edge6" class="edge">
<title>n3&#45;&gt;n4</title>
<path fill="none" stroke="black" d="M542.01,-148.87C550.49,-145.3 559.45,-141.82 568,-139 578.56,-135.52 589.79,-132.31 600.96,-129.41"/>
<polygon fill="black" stroke="black" points="601.9,-132.78 610.74,-126.94 600.18,-126 601.9,-132.78"/>
<text text-anchor="middle" x="580.5" y="-142.8" font-family="Times,serif" font-size="14.00">no</text>
</g>
<!-- low3 -->
<g id="node8" class="node">
<title>low3</title>
<text text-anchor="middle" x="1065" y="-164.3" font-family="Times,serif" font-size="14.00">Low</text>
</g>
<!-- n3&#45;&gt;low3 -->
<g id="edge5" class="edge">
<title>n3&#45;&gt;low3</title>
<path fill="none" stroke="black" d="M550.47,-168C661.81,-168 929.97,-168 1027.64,-168"/>
<polygon fill="black" stroke="black" points="1027.89,-171.5 1037.89,-168 1027.89,-164.5 1027.89,-171.5"/>
<text text-anchor="middle" x="789.5" y="-171.8" font-family="Times,serif" font-size="14.00">yes</text>
</g>
<!-- n5 -->
<g id="node5" class="node">
<title>n5</title>
<polygon fill="none" stroke="black" points="977,-131 820,-131 820,-93 977,-93 977,-131"/>
<text text-anchor="middle" x="898.5" y="-115.8" font-family="Times,serif" font-size="14.00">Are its origins deep</text>
<text text-anchor="middle" x="898.5" y="-100.8" font-family="Times,serif" font-size="14.00">and obscure?</text>
</g>
<!-- n4&#45;&gt;n5 -->
<g id="edge7" class="edge">
<title>n4&#45;&gt;n5</title>
<path fill="none" stroke="black" d="M759.08,-112C775.3,-112 792.65,-112 809.4,-112"/>
<polygon fill="black" stroke="black" points="809.73,-115.5 819.73,-112 809.73,-108.5 809.73,-115.5"/>
<text text-anchor="middle" x="789.5" y="-115.8" font-family="Times,serif" font-size="14.00">yes</text>
</g>
<!-- low4 -->
<g id="node9" class="node">
<title>low4</title>
<text text-anchor="middle" x="1065" y="-56.3" font-family="Times,serif" font-size="14.00">Low</text>
</g>
<!-- n4&#45;&gt;low4 -->
<g id="edge8" class="edge">
<title>n4&#45;&gt;low4</title>
<path fill="none" stroke="black" d="M734.51,-92.89C759.61,-83.91 791,-74.09 820,-69 892.78,-56.23 979.58,-56.68 1027.56,-58.26"/>
<polygon fill="black" stroke="black" points="1027.63,-61.77 1037.75,-58.64 1027.89,-54.77 1027.63,-61.77"/>
<text text-anchor="middle" x="898.5" y="-72.8" font-family="Times,serif" font-size="14.00">no</text>
</g>
<!-- n5&#45;&gt;low4 -->
<g id="edge10" class="edge">
<title>n5&#45;&gt;low4</title>
<path fill="none" stroke="black" d="M959.82,-92.93C982.72,-85.69 1008.08,-77.68 1028.04,-71.37"/>
<polygon fill="black" stroke="black" points="1029.18,-74.68 1037.66,-68.33 1027.07,-68 1029.18,-74.68"/>
<text text-anchor="middle" x="1007.5" y="-85.8" font-family="Times,serif" font-size="14.00">no</text>
</g>
<!-- high -->
<g id="node10" class="node">
<title>high</title>
<text text-anchor="middle" x="1065" y="-110.3" font-family="Times,serif" font-size="14.00">High</text>
</g>
<!-- n5&#45;&gt;high -->
<g id="edge9" class="edge">
<title>n5&#45;&gt;high</title>
<path fill="none" stroke="black" d="M977.41,-112.95C994.92,-113.16 1012.69,-113.38 1027.54,-113.56"/>
<polygon fill="black" stroke="black" points="1027.75,-117.06 1037.79,-113.68 1027.83,-110.06 1027.75,-117.06"/>
<text text-anchor="middle" x="1007.5" y="-117.8" font-family="Times,serif" font-size="14.00">yes</text>
</g>
<!-- tacit_label_top -->
<!-- tacit_label_bottom -->
<!-- tacit_label_top&#45;&gt;tacit_label_bottom -->
<!-- tacit_label -->
<g id="node13" class="node">
<title>tacit_label</title>
<text text-anchor="middle" x="83.5" y="-298.3" font-family="Times,serif" font-size="14.00">Degree of &#39;tacitness&#39;</text>
</g>
<!-- low_marker -->
<g id="node14" class="node">
<title>low_marker</title>
<text text-anchor="middle" x="83.5" y="-352.3" font-family="Times,serif" font-size="14.00">Low</text>
</g>
<!-- high_marker -->
<g id="node15" class="node">
<title>high_marker</title>
<text text-anchor="middle" x="83.5" y="-406.3" font-family="Times,serif" font-size="14.00">High</text>
</g>
<!-- rhs_top -->
<g id="node16" class="node">
<title>rhs_top</title>
<text text-anchor="middle" x="83.5" y="-460.3" font-family="Times,serif" font-size="14.00">Low</text>
</g>
<!-- rhs_middle -->
<g id="node17" class="node">
<title>rhs_middle</title>
<text text-anchor="middle" x="308.5" y="-467" font-family="Times,serif" font-size="10.00">Degree of</text>
<text text-anchor="middle" x="308.5" y="-456" font-family="Times,serif" font-size="10.00">&#39;tacitness&#39;</text>
</g>
<!-- rhs_top&#45;&gt;rhs_middle -->
<!-- rhs_bottom -->
<g id="node18" class="node">
<title>rhs_bottom</title>
<text text-anchor="middle" x="685" y="-460.3" font-family="Times,serif" font-size="14.00">High</text>
</g>
<!-- rhs_middle&#45;&gt;rhs_bottom -->
<g id="edge13" class="edge">
<title>rhs_middle&#45;&gt;rhs_bottom</title>
<path fill="none" stroke="black" d="M342.73,-464C412.86,-464 575.45,-464 647.97,-464"/>
<polygon fill="black" stroke="black" points="647.99,-467.5 657.99,-464 647.99,-460.5 647.99,-467.5"/>
<text text-anchor="middle" x="657.99" y="-450.3" font-family="Times,serif" font-size="14.00">▲</text>
<text text-anchor="middle" x="342.73" y="-470.3" font-family="Times,serif" font-size="14.00"> </text>
</g>
</g>
</svg>
